<svg xmlns="http://www.w3.org/2000/svg" id="Layer_2" data-name="Layer 2" viewBox="0 0 725.34 248.71"><defs><style>      .cls-1 {        fill: #154361;      }      .cls-2 {        fill: #f3932b;      }      .cls-3 {        fill: #f36406;      }      .cls-4 {        fill: #999;      }    </style></defs><g id="Capa_1" data-name="Capa 1"><g><g><g><path class="cls-1" d="M270.98,52.84V5.45h11.85v47.39h-11.85Z"></path><path class="cls-1" d="M291.8,52.84V17.96h11.04l.37,3.02c1.42-.98,3.21-1.85,5.37-2.61,2.16-.76,4.46-1.14,6.92-1.14,4.51,0,7.8,1.08,9.86,3.24,2.06,2.16,3.09,5.5,3.09,10.01v22.37h-11.85v-21.42c0-1.96-.42-3.36-1.25-4.19-.83-.83-2.33-1.25-4.49-1.25-1.28,0-2.58.29-3.9.88-1.32.59-2.43,1.32-3.31,2.21v23.77h-11.85Z"></path><path class="cls-1" d="M350.02,53.58c-2.8,0-5.45-.2-7.95-.59-2.5-.39-4.49-.88-5.96-1.47v-9.05c1.72.74,3.7,1.3,5.96,1.69,2.26.39,4.27.59,6.03.59,2.11,0,3.64-.1,4.6-.29.96-.2,1.44-.74,1.44-1.62,0-.98-.79-1.72-2.35-2.21-1.57-.49-3.73-1.2-6.48-2.13-3.19-1.13-5.61-2.44-7.25-3.94-1.64-1.5-2.47-3.72-2.47-6.66,0-3.43,1.29-6.07,3.86-7.91,2.58-1.84,6.68-2.76,12.33-2.76,2.21,0,4.39.17,6.55.52,2.16.34,3.92.74,5.3,1.18v8.9c-1.37-.64-2.94-1.1-4.71-1.4-1.77-.29-3.36-.44-4.78-.44-1.82,0-3.35.11-4.6.33-1.25.22-1.88.75-1.88,1.58,0,.93.69,1.58,2.06,1.95,1.37.37,3.36.97,5.96,1.8,2.75.83,4.88,1.73,6.4,2.69,1.52.96,2.6,2.1,3.24,3.42.64,1.32.96,2.99.96,5,0,3.48-1.37,6.16-4.12,8.02-2.75,1.87-6.8,2.8-12.14,2.8Z"></path><path class="cls-1" d="M387.03,53.58c-4.32,0-7.5-1.1-9.53-3.31-2.04-2.21-3.05-5.25-3.05-9.13v-14.2h-4.71v-8.98h4.71v-7.29l11.85-3.16v10.45h8.46l-.52,8.98h-7.95v13.39c0,1.67.42,2.83,1.25,3.5.83.66,2.08.99,3.75.99,1.42,0,2.87-.24,4.34-.74v8.02c-2.31.98-5.18,1.47-8.61,1.47Z"></path><path class="cls-1" d="M404.99,52.84v-26.13h-5.15l1.03-8.76h15.97v34.88h-11.85ZM404.03,12.44V3.53h12.88v8.9h-12.88Z"></path><path class="cls-1" d="M440.24,53.58c-4.32,0-7.5-1.1-9.53-3.31-2.04-2.21-3.05-5.25-3.05-9.13v-14.2h-4.71v-8.98h4.71v-7.29l11.85-3.16v10.45h8.46l-.52,8.98h-7.95v13.39c0,1.67.42,2.83,1.25,3.5.83.66,2.08.99,3.75.99,1.42,0,2.87-.24,4.34-.74v8.02c-2.31.98-5.18,1.47-8.61,1.47Z"></path><path class="cls-1" d="M466.88,53.58c-4.12,0-7.33-1.16-9.64-3.5-2.31-2.33-3.46-5.73-3.46-10.19v-21.93h11.85v21.27c0,1.96.48,3.4,1.44,4.31.96.91,2.39,1.36,4.31,1.36,1.42,0,2.77-.29,4.05-.88,1.28-.59,2.33-1.32,3.16-2.21v-23.84h11.85v34.88h-11.04l-.37-2.94c-1.42,1.08-3.14,1.96-5.15,2.65-2.01.69-4.34,1.03-6.99,1.03Z"></path><path class="cls-1" d="M517.8,53.58c-6.23,0-11.1-1.52-14.61-4.56-3.51-3.04-5.26-7.58-5.26-13.61s1.83-10.7,5.48-13.69c3.65-2.99,8.52-4.49,14.61-4.49,2.55,0,4.77.18,6.66.55,1.89.37,3.72.97,5.48,1.8v8.39c-2.75-1.32-5.96-1.99-9.64-1.99-3.43,0-6.05.69-7.84,2.06-1.79,1.37-2.69,3.83-2.69,7.36,0,3.29.83,5.68,2.5,7.18,1.67,1.5,4.32,2.24,7.95,2.24s6.84-.74,9.79-2.21v8.76c-1.77.79-3.67,1.35-5.7,1.69-2.04.34-4.28.51-6.73.51Z"></path><path class="cls-1" d="M541.06,52.84v-26.13h-5.15l1.03-8.76h15.97v34.88h-11.85ZM540.1,12.44V3.53h12.88v8.9h-12.88Z"></path><path class="cls-1" d="M580.14,53.58c-6.72,0-11.68-1.56-14.87-4.67-3.19-3.11-4.78-7.62-4.78-13.5s1.61-10.33,4.82-13.47c3.21-3.14,8.16-4.71,14.83-4.71s11.69,1.57,14.9,4.71c3.21,3.14,4.82,7.63,4.82,13.47s-1.59,10.39-4.78,13.5c-3.19,3.12-8.17,4.67-14.94,4.67ZM580.14,44.3c2.75,0,4.71-.69,5.89-2.06,1.18-1.37,1.77-3.65,1.77-6.84s-.59-5.47-1.77-6.84c-1.18-1.37-3.14-2.06-5.89-2.06s-4.64.69-5.81,2.06c-1.18,1.37-1.77,3.66-1.77,6.84s.59,5.47,1.77,6.84c1.18,1.37,3.12,2.06,5.81,2.06ZM574.76,14.42l6.18-14.42h9.71l-6.77,14.42h-9.13Z"></path><path class="cls-1" d="M607.36,52.84V17.96h11.04l.37,3.02c1.42-.98,3.21-1.85,5.37-2.61,2.16-.76,4.46-1.14,6.92-1.14,4.51,0,7.8,1.08,9.86,3.24,2.06,2.16,3.09,5.5,3.09,10.01v22.37h-11.85v-21.42c0-1.96-.42-3.36-1.25-4.19-.83-.83-2.33-1.25-4.49-1.25-1.28,0-2.58.29-3.9.88-1.32.59-2.43,1.32-3.31,2.21v23.77h-11.85Z"></path><path class="cls-1" d="M292.39,121.57c-4.42,0-8.26-.71-11.52-2.13-3.26-1.42-5.79-3.53-7.58-6.33-1.79-2.8-2.69-6.23-2.69-10.3v-29.36h11.85v28.26c0,3.29.86,5.74,2.58,7.36,1.72,1.62,4.17,2.43,7.36,2.43s5.64-.81,7.36-2.43c1.72-1.62,2.58-4.07,2.58-7.36v-28.26h11.85v29.36c0,4.07-.9,7.51-2.69,10.3-1.79,2.8-4.32,4.91-7.58,6.33-3.26,1.42-7.1,2.13-11.52,2.13Z"></path><path class="cls-1" d="M322.79,120.83v-34.88h11.04l.37,3.02c1.42-.98,3.21-1.85,5.37-2.61,2.16-.76,4.46-1.14,6.92-1.14,4.51,0,7.8,1.08,9.86,3.24,2.06,2.16,3.09,5.5,3.09,10.01v22.37h-11.85v-21.42c0-1.96-.42-3.36-1.25-4.19-.83-.83-2.33-1.25-4.49-1.25-1.28,0-2.58.29-3.9.88-1.32.59-2.43,1.32-3.31,2.21v23.77h-11.85Z"></path><path class="cls-1" d="M371.36,120.83v-26.13h-5.15l1.03-8.76h15.97v34.88h-11.85ZM370.4,80.43v-8.9h12.88v8.9h-12.88Z"></path><path class="cls-1" d="M403.08,120.83l-13.76-34.88h12.36l7.65,22.67,7.73-22.67h12.36l-13.76,34.88h-12.58Z"></path><path class="cls-1" d="M451.57,121.57c-6.08,0-10.97-1.51-14.64-4.53-3.68-3.02-5.52-7.57-5.52-13.65,0-5.54,1.52-9.96,4.56-13.25,3.04-3.29,7.6-4.93,13.69-4.93,5.54,0,9.84,1.42,12.88,4.27,3.04,2.85,4.56,6.67,4.56,11.48v6.26h-24.73c.54,2.31,1.8,3.91,3.79,4.82,1.99.91,4.7,1.36,8.13,1.36,1.91,0,3.86-.17,5.85-.52,1.99-.34,3.64-.78,4.97-1.32v7.73c-1.67.79-3.66,1.36-5.96,1.73-2.31.37-4.83.55-7.58.55ZM442.37,100.38h14.42v-1.55c0-1.72-.52-3.08-1.55-4.08-1.03-1.01-2.77-1.51-5.22-1.51-2.85,0-4.83.58-5.96,1.73-1.13,1.15-1.69,2.96-1.69,5.41Z"></path><path class="cls-1" d="M474.61,120.83v-34.88h11.26l.37,3.24c1.52-.93,3.41-1.78,5.67-2.54,2.26-.76,4.51-1.24,6.77-1.43v8.9c-1.28.15-2.69.38-4.23.7-1.55.32-3.02.7-4.42,1.14-1.4.44-2.59.91-3.57,1.4v23.48h-11.85Z"></path><path class="cls-1" d="M517.22,121.57c-2.8,0-5.45-.2-7.95-.59-2.5-.39-4.49-.88-5.96-1.47v-9.05c1.72.74,3.7,1.3,5.96,1.69,2.26.39,4.27.59,6.03.59,2.11,0,3.64-.1,4.6-.29.96-.2,1.44-.74,1.44-1.62,0-.98-.79-1.72-2.35-2.21-1.57-.49-3.73-1.2-6.48-2.13-3.19-1.13-5.61-2.44-7.25-3.94-1.64-1.5-2.47-3.72-2.47-6.66,0-3.43,1.29-6.07,3.86-7.91,2.58-1.84,6.68-2.76,12.33-2.76,2.21,0,4.39.17,6.55.52,2.16.34,3.92.74,5.3,1.18v8.9c-1.37-.64-2.94-1.1-4.71-1.4-1.77-.29-3.36-.44-4.78-.44-1.82,0-3.35.11-4.6.33-1.25.22-1.88.75-1.88,1.58,0,.93.69,1.58,2.06,1.95,1.37.37,3.36.97,5.96,1.8,2.75.83,4.88,1.73,6.4,2.69,1.52.96,2.6,2.1,3.24,3.42.64,1.32.96,2.99.96,5,0,3.48-1.37,6.16-4.12,8.02-2.75,1.87-6.8,2.8-12.14,2.8Z"></path><path class="cls-1" d="M544.3,120.83v-26.13h-5.15l1.03-8.76h15.97v34.88h-11.85ZM543.34,80.43v-8.9h12.88v8.9h-12.88Z"></path><path class="cls-1" d="M579.55,121.57c-4.32,0-7.5-1.1-9.53-3.31-2.04-2.21-3.05-5.25-3.05-9.13v-14.2h-4.71v-8.98h4.71v-7.29l11.85-3.16v10.45h8.46l-.52,8.98h-7.95v13.39c0,1.67.42,2.83,1.25,3.5.83.66,2.08.99,3.75.99,1.42,0,2.87-.24,4.34-.74v8.02c-2.31.98-5.18,1.47-8.61,1.47Z"></path><path class="cls-1" d="M605.09,121.57c-2.21,0-4.26-.39-6.15-1.18-1.89-.78-3.4-2-4.53-3.64-1.13-1.64-1.69-3.69-1.69-6.15,0-3.58,1.21-6.39,3.64-8.43,2.43-2.04,6.07-3.05,10.93-3.05h9.71v-.81c0-1.77-.59-3.03-1.77-3.79-1.18-.76-3.39-1.14-6.62-1.14-3.97,0-7.87.61-11.7,1.84v-7.65c1.72-.69,3.81-1.25,6.29-1.69,2.48-.44,5.09-.66,7.84-.66,5.4,0,9.63,1.1,12.69,3.31,3.07,2.21,4.6,5.72,4.6,10.52v21.78h-10.38l-.59-2.94c-1.28,1.18-2.91,2.09-4.89,2.72-1.99.64-4.45.96-7.4.96ZM608.84,114.28c1.86,0,3.48-.32,4.86-.96,1.37-.64,2.48-1.45,3.31-2.43v-4.93h-8.39c-3.48,0-5.23,1.4-5.23,4.19,0,1.28.44,2.28,1.32,3.02.88.74,2.26,1.1,4.12,1.1Z"></path><path class="cls-1" d="M636.95,120.83v-34.88h11.26l.37,3.24c1.52-.93,3.41-1.78,5.67-2.54,2.26-.76,4.51-1.24,6.77-1.43v8.9c-1.28.15-2.69.38-4.23.7-1.55.32-3.02.7-4.42,1.14-1.4.44-2.59.91-3.57,1.4v23.48h-11.85Z"></path><path class="cls-1" d="M670.29,120.83v-26.13h-5.15l1.03-8.76h15.97v34.88h-11.85ZM669.33,80.43v-8.9h12.88v8.9h-12.88Z"></path><path class="cls-1" d="M702.08,121.57c-2.21,0-4.26-.39-6.15-1.18-1.89-.78-3.4-2-4.53-3.64-1.13-1.64-1.69-3.69-1.69-6.15,0-3.58,1.21-6.39,3.64-8.43,2.43-2.04,6.07-3.05,10.93-3.05h9.71v-.81c0-1.77-.59-3.03-1.77-3.79-1.18-.76-3.39-1.14-6.62-1.14-3.97,0-7.87.61-11.7,1.84v-7.65c1.72-.69,3.81-1.25,6.29-1.69,2.48-.44,5.09-.66,7.84-.66,5.4,0,9.63,1.1,12.69,3.31,3.07,2.21,4.6,5.72,4.6,10.52v21.78h-10.38l-.59-2.94c-1.28,1.18-2.91,2.09-4.89,2.72-1.99.64-4.45.96-7.4.96ZM705.83,114.28c1.86,0,3.48-.32,4.86-.96,1.37-.64,2.48-1.45,3.31-2.43v-4.93h-8.39c-3.48,0-5.23,1.4-5.23,4.19,0,1.28.44,2.28,1.32,3.02.88.74,2.26,1.1,4.12,1.1Z"></path><path class="cls-1" d="M285.62,189.56c-3.39,0-6.28-.54-8.68-1.62-2.4-1.08-4.24-2.86-5.52-5.34-1.28-2.48-1.91-5.8-1.91-9.97s.74-7.76,2.21-10.63c1.47-2.87,3.5-5.05,6.07-6.55,2.58-1.5,5.53-2.24,8.87-2.24,1.81,0,3.45.2,4.89.59,1.45.39,2.81.98,4.08,1.77v-16.34h11.85v49.6h-10.23l-.66-2.94c-1.42,1.23-3.02,2.15-4.78,2.76-1.77.61-3.83.92-6.18.92ZM289.01,180.95c2.6,0,4.81-.88,6.62-2.65v-14.13c-1.67-1.52-3.8-2.28-6.4-2.28s-4.4.95-5.7,2.83c-1.3,1.89-1.95,4.55-1.95,7.98s.63,5.54,1.88,6.62c1.25,1.08,3.1,1.62,5.56,1.62Z"></path><path class="cls-1" d="M334.41,189.56c-6.08,0-10.97-1.51-14.64-4.53-3.68-3.02-5.52-7.57-5.52-13.65,0-5.54,1.52-9.96,4.56-13.25,3.04-3.29,7.6-4.93,13.69-4.93,5.54,0,9.84,1.42,12.88,4.27,3.04,2.85,4.56,6.67,4.56,11.48v6.26h-24.73c.54,2.31,1.8,3.91,3.79,4.82,1.99.91,4.7,1.36,8.13,1.36,1.91,0,3.86-.17,5.85-.52,1.99-.34,3.64-.78,4.97-1.32v7.73c-1.67.79-3.66,1.36-5.96,1.73-2.31.37-4.83.55-7.58.55ZM325.22,168.37h14.42v-1.55c0-1.72-.52-3.08-1.55-4.08-1.03-1.01-2.77-1.51-5.22-1.51-2.85,0-4.83.58-5.96,1.73-1.13,1.15-1.69,2.96-1.69,5.41Z"></path><path class="cls-1" d="M374.74,188.83v-47.39h34.96v9.13h-23.11v9.93h20.39v9.27h-20.39v9.93h23.11v9.13h-34.96Z"></path><path class="cls-1" d="M416.84,188.83v-34.88h11.04l.37,3.02c1.42-.98,3.21-1.85,5.37-2.61,2.16-.76,4.46-1.14,6.92-1.14,4.51,0,7.8,1.08,9.86,3.24,2.06,2.16,3.09,5.5,3.09,10.01v22.37h-11.85v-21.42c0-1.96-.42-3.36-1.25-4.19-.84-.83-2.33-1.25-4.49-1.25-1.28,0-2.58.29-3.9.88-1.32.59-2.43,1.32-3.31,2.21v23.77h-11.85Z"></path><path class="cls-1" d="M472.55,188.83l-13.76-34.88h12.36l7.65,22.67,7.73-22.67h12.36l-13.76,34.88h-12.58Z"></path><path class="cls-1" d="M507.14,188.83v-26.13h-5.15l1.03-8.76h15.97v34.88h-11.85ZM506.18,148.43v-8.9h12.88v8.9h-12.88Z"></path><path class="cls-1" d="M543.05,201.78c-1.72,0-3.53-.07-5.45-.22-1.91-.15-3.73-.37-5.45-.66-1.72-.29-3.19-.64-4.42-1.03v-8.1c1.96.64,4.32,1.13,7.06,1.47,2.75.34,5.27.52,7.58.52,2.99,0,5.24-.16,6.73-.48,1.5-.32,2.24-.87,2.24-1.66,0-.69-.29-1.15-.88-1.4-.59-.25-1.74-.37-3.46-.37h-9.64c-3.14,0-5.58-.56-7.32-1.69-1.74-1.13-2.61-2.77-2.61-4.93,0-1.47.45-2.87,1.36-4.19.91-1.32,2.24-2.31,4.01-2.94-2.01-1.03-3.53-2.33-4.56-3.9-1.03-1.57-1.55-3.56-1.55-5.96,0-4.51,1.46-7.81,4.38-9.9,2.92-2.08,7.2-3.13,12.84-3.13,1.18,0,2.49.09,3.94.26,1.45.17,2.51.33,3.2.48h13.39l-.29,7.36h-5.08c1.23,1.23,1.84,3.04,1.84,5.45,0,3.39-1.09,6.11-3.28,8.17-2.18,2.06-5.48,3.09-9.9,3.09-.74,0-1.46-.04-2.17-.11-.71-.07-1.41-.13-2.1-.18-1.28.15-2.37.42-3.28.81-.91.39-1.36.96-1.36,1.69,0,.59.23.98.7,1.18.47.2,1.16.29,2.1.29h8.9c3.58,0,6.37.82,8.35,2.47,1.99,1.64,2.98,4.04,2.98,7.18,0,6.97-6.28,10.45-18.84,10.45ZM544.01,171.46c2.6,0,4.39-.44,5.37-1.32.98-.88,1.47-2.36,1.47-4.42s-.5-3.56-1.51-4.49c-1.01-.93-2.78-1.4-5.34-1.4-2.4,0-4.13.45-5.19,1.36-1.06.91-1.58,2.42-1.58,4.53,0,1.96.49,3.41,1.47,4.34.98.93,2.75,1.4,5.3,1.4Z"></path><path class="cls-1" d="M578.89,189.56c-2.21,0-4.26-.39-6.15-1.18-1.89-.78-3.4-2-4.53-3.64-1.13-1.64-1.69-3.69-1.69-6.15,0-3.58,1.21-6.39,3.64-8.43,2.43-2.04,6.07-3.05,10.93-3.05h9.71v-.81c0-1.77-.59-3.03-1.77-3.79-1.18-.76-3.39-1.14-6.62-1.14-3.97,0-7.87.61-11.7,1.84v-7.65c1.72-.69,3.81-1.25,6.29-1.69,2.48-.44,5.09-.66,7.84-.66,5.4,0,9.63,1.1,12.69,3.31,3.07,2.21,4.6,5.72,4.6,10.52v21.78h-10.38l-.59-2.94c-1.28,1.18-2.91,2.09-4.89,2.72-1.99.64-4.45.96-7.4.96ZM582.64,182.28c1.86,0,3.48-.32,4.86-.96,1.37-.64,2.48-1.45,3.31-2.43v-4.93h-8.39c-3.48,0-5.23,1.4-5.23,4.19,0,1.28.44,2.28,1.32,3.02.88.74,2.26,1.1,4.12,1.1Z"></path><path class="cls-1" d="M625.4,189.56c-3.39,0-6.28-.54-8.68-1.62-2.4-1.08-4.24-2.86-5.52-5.34-1.28-2.48-1.91-5.8-1.91-9.97s.74-7.76,2.21-10.63c1.47-2.87,3.5-5.05,6.07-6.55,2.58-1.5,5.53-2.24,8.87-2.24,1.81,0,3.45.2,4.89.59,1.45.39,2.81.98,4.08,1.77v-16.34h11.85v49.6h-10.23l-.66-2.94c-1.42,1.23-3.02,2.15-4.78,2.76-1.77.61-3.83.92-6.18.92ZM628.78,180.95c2.6,0,4.81-.88,6.62-2.65v-14.13c-1.67-1.52-3.8-2.28-6.4-2.28s-4.4.95-5.7,2.83c-1.3,1.89-1.95,4.55-1.95,7.98s.63,5.54,1.88,6.62c1.25,1.08,3.1,1.62,5.56,1.62Z"></path><path class="cls-1" d="M673.68,189.56c-6.72,0-11.68-1.56-14.87-4.67-3.19-3.11-4.78-7.62-4.78-13.5s1.61-10.33,4.82-13.47c3.21-3.14,8.16-4.71,14.83-4.71s11.69,1.57,14.9,4.71c3.21,3.14,4.82,7.63,4.82,13.47s-1.59,10.39-4.78,13.5c-3.19,3.12-8.17,4.67-14.94,4.67ZM673.68,180.29c2.75,0,4.71-.69,5.89-2.06,1.18-1.37,1.77-3.65,1.77-6.84s-.59-5.47-1.77-6.84c-1.18-1.37-3.14-2.06-5.89-2.06s-4.64.69-5.81,2.06c-1.18,1.37-1.77,3.66-1.77,6.84s.59,5.47,1.77,6.84c1.18,1.37,3.12,2.06,5.81,2.06Z"></path></g><g><path class="cls-3" d="M220.46,41.26c-9.82,4.93-27.82,6.67-42.97,8.21-26.85,2.74-49.01,13.93-64.27,30.79-15.26-16.86-38.2-28.05-65.05-30.79-15.16-1.55-33.34-3.28-43.16-8.21L0,55.7c14.44,5.03,30.12,6.32,46.71,8.01,25.47,2.6,45.85,13.73,58.84,29.94,4.5,5.61,7.67,11.55,7.67,11.55.07-.14,2.92-6.65,6.89-11.55,13.04-16.16,33.37-27.34,58.84-29.94,16.59-1.69,33.13-2.99,47.57-8.01l-6.06-14.44Z"></path><path class="cls-3" d="M207.7,2.8l-9.34,5.12c-.15.09-16.87,8.7-38.33,9.47-1.29.05-2.94.01-4.85-.02-10.76-.22-31.89.26-41.97,17.37-13.83-16.76-32.15-17.59-42.91-17.37-1.91.04-3.56.07-4.85.02-21.46-.77-35.24-9.38-35.39-9.47l-9.34-5.12-11.32,25.35,15.42,4.45,4.43-9.41c7.3,3.18,19.22,7.69,35.71,8.28,1.68.06,3.6.02,5.64-.02,13.36-.25,23.03,2.21,31.49,10.15,6.49,6.09,8.06,8.42,11.14,14.07.06.11,3.28-7.89,10.2-14.07,8.66-7.73,18.13-10.41,31.49-10.15,2.03.04,3.96.08,5.64.02,16.49-.59,31.35-5.11,38.64-8.28l4.06,9.43,14.47-3.98-10.01-25.84Z"></path><path class="cls-2" d="M121.25,172.81s-10.25-56.25,41.39-83.96c11.01-5.91,18.22-9.81,36.09-12.43-6.12,30.37-22.61,34.35-47.58,50.38-28.18,18.09-29.91,46.01-29.91,46.01Z"></path><path class="cls-2" d="M120.71,200.13s-4.13-38.79,41.92-59.71c25.57-11.62,32.06-21.31,35.14-29.68-5.71,43.24-17.65,48.46-51.03,67.03-19.11,10.63-26.03,22.35-26.03,22.35Z"></path><path class="cls-3" d="M211.69,72.27l-4.6,44.52c-4.8,38.75-18.86,63.13-42.86,78.34-9.68,6.13-40.21,21.74-51.03,28.24l-47.69-26.11c-24.9-14.39-40.33-40.27-45.88-76.92l-3.53-32.05c21.38,3.07,37.39,9.43,49.28,18.73,15.22,11.9,24.31,30.81,24.31,50.57v17.51c-6.15-4.02-14.83-10.5-22.04-19-6.05-7.13-11.46-19.47-14.77-28.04-2.45-6.34-6.72-11.8-12.29-15.7l-8.87-6.22,4.47,16.68c.37,1.16,9.12,28.51,20.82,42.31,14.5,17.1,33.49,26.72,34.3,27.12l.04-.07,14.47,7.51v-42.09c0-24.69-11.4-48.35-30.5-63.28C59.9,82.25,34.65,72.24,0,71.22l5.1,50.88c6.11,40.94,24.49,71.32,53.16,87.86l54.94,30.28s48.14-25.61,59.62-33.04c27.41-17.76,44-44.64,48.45-88.24l4.96-47.74-14.55,1.04Z"></path></g></g><g><g><path class="cls-4" d="M279.32,224.83l4.57,13.56,4.52-13.56h2.42l-5.81,15.92h-2.29l-5.8-15.92h2.39Z"></path><path class="cls-4" d="M293.35,224.83h2.18v15.92h-2.18v-15.92Z"></path><path class="cls-4" d="M309.63,225.28c1.56.83,2.51,2.29,2.86,4.37h-2.14c-.25-1.16-.78-2.01-1.58-2.54s-1.81-.8-3.03-.8c-1.44,0-2.66.55-3.65,1.66-.99,1.11-1.48,2.75-1.48,4.94,0,1.89.41,3.44,1.22,4.62s2.14,1.78,3.98,1.78c1.41,0,2.58-.42,3.5-1.25.92-.83,1.4-2.18,1.42-4.05h-4.99v-1.79h6.99v8.52h-1.39l-.52-2.05c-.72.8-1.35,1.36-1.91,1.67-.93.53-2.12.8-3.55.8-1.86,0-3.45-.61-4.79-1.83-1.46-1.53-2.19-3.63-2.19-6.31s.71-4.79,2.14-6.36c1.35-1.5,3.1-2.25,5.26-2.25,1.48,0,2.75.29,3.83.87Z"></path><path class="cls-4" d="M316.79,224.83h2.18v15.92h-2.18v-15.92Z"></path><path class="cls-4" d="M322.47,224.83h2.16v14.03h7.99v1.9h-10.15v-15.92Z"></path><path class="cls-4" d="M339.44,224.83h2.44l5.78,15.92h-2.36l-1.62-4.77h-6.3l-1.72,4.77h-2.21l5.99-15.92ZM342.99,234.22l-2.42-7.04-2.57,7.04h4.99Z"></path><path class="cls-4" d="M349.72,224.83h6.37c2.16,0,3.84.78,5.03,2.33,1.06,1.4,1.59,3.2,1.59,5.39,0,1.69-.31,3.22-.94,4.59-1.1,2.41-3.01,3.62-5.7,3.62h-6.34v-15.92ZM355.66,238.91c.71,0,1.3-.08,1.76-.23.82-.28,1.49-.82,2.01-1.63.42-.64.72-1.47.9-2.47.11-.6.16-1.16.16-1.67,0-1.97-.38-3.5-1.15-4.6-.77-1.09-2-1.64-3.7-1.64h-3.74v12.23h3.76Z"></path><path class="cls-4" d="M370.28,224.83h2.44l5.78,15.92h-2.36l-1.62-4.77h-6.3l-1.72,4.77h-2.21l5.99-15.92ZM373.83,234.22l-2.42-7.04-2.57,7.04h4.99Z"></path></g><g><path class="cls-4" d="M399.09,224.77h4.8v15.98h-3.11v-10.81c0-.31,0-.75.01-1.31,0-.56.01-.99.01-1.3l-3.03,13.41h-3.24l-3.01-13.41c0,.3,0,.74.01,1.3,0,.56.01,1,.01,1.31v10.81h-3.11v-15.98h4.86l2.91,12.56,2.89-12.56Z"></path><path class="cls-4" d="M410.03,240.75h-3.32v-15.98h3.32v15.98Z"></path><path class="cls-4" d="M413.09,224.77h3.5l6.34,11.14v-11.14h3.11v15.98h-3.34l-6.51-11.34v11.34h-3.11v-15.98Z"></path><path class="cls-4" d="M441,227.6h-8.45v3.39h7.76v2.77h-7.76v4.11h8.85v2.87h-12.11v-15.98h11.72v2.83Z"></path><path class="cls-4" d="M453.35,225.12c1.12.37,2.03,1.04,2.72,2.03.56.8.94,1.66,1.14,2.58.2.93.3,1.81.3,2.64,0,2.12-.43,3.92-1.28,5.4-1.16,1.99-2.94,2.98-5.36,2.98h-6.89v-15.98h6.89c.99.01,1.81.13,2.47.35ZM447.23,227.55v10.43h3.08c1.58,0,2.68-.78,3.3-2.33.34-.85.51-1.87.51-3.05,0-1.63-.26-2.87-.77-3.75s-1.53-1.31-3.05-1.31h-3.08Z"></path><path class="cls-4" d="M460.02,224.77h3.39v9.81c0,1.1.13,1.9.39,2.4.4.9,1.28,1.34,2.64,1.34s2.22-.45,2.62-1.34c.26-.51.39-1.31.39-2.4v-9.81h3.39v9.82c0,1.7-.26,3.02-.79,3.97-.98,1.73-2.85,2.6-5.62,2.6s-4.64-.87-5.63-2.6c-.53-.95-.79-2.27-.79-3.97v-9.82Z"></path><path class="cls-4" d="M477.58,226.44c1.29-1.31,2.92-1.97,4.91-1.97,2.66,0,4.6.88,5.83,2.64.68.99,1.04,1.98,1.09,2.98h-3.34c-.21-.77-.49-1.34-.82-1.73-.59-.69-1.48-1.04-2.64-1.04s-2.13.49-2.81,1.47c-.69.98-1.03,2.37-1.03,4.16s.36,3.13,1.09,4.03c.72.89,1.65,1.34,2.76,1.34s2.02-.38,2.62-1.15c.33-.41.61-1.03.83-1.85h3.32c-.29,1.74-1.02,3.16-2.19,4.25-1.18,1.09-2.68,1.64-4.52,1.64-2.27,0-4.06-.74-5.36-2.21-1.3-1.48-1.95-3.51-1.95-6.09,0-2.79.74-4.94,2.22-6.45Z"></path><path class="cls-4" d="M496.66,224.77h3.78l5.65,15.98h-3.62l-1.05-3.28h-5.88l-1.08,3.28h-3.49l5.7-15.98ZM496.44,234.71h4.09l-2.02-6.29-2.07,6.29Z"></path><path class="cls-4" d="M509.65,226.44c1.29-1.31,2.92-1.97,4.91-1.97,2.66,0,4.6.88,5.83,2.64.68.99,1.04,1.98,1.09,2.98h-3.34c-.21-.77-.49-1.34-.82-1.73-.59-.69-1.48-1.04-2.64-1.04s-2.13.49-2.81,1.47c-.69.98-1.03,2.37-1.03,4.16s.36,3.13,1.09,4.03c.72.89,1.65,1.34,2.76,1.34s2.02-.38,2.62-1.15c.33-.41.61-1.03.83-1.85h3.32c-.29,1.74-1.02,3.16-2.19,4.25-1.18,1.09-2.68,1.64-4.52,1.64-2.27,0-4.06-.74-5.36-2.21-1.3-1.48-1.95-3.51-1.95-6.09,0-2.79.74-4.94,2.22-6.45Z"></path><path class="cls-4" d="M527.2,240.75h-3.32v-15.98h3.32v15.98Z"></path><path class="cls-4" d="M541.08,219.76l-3.3,3.24h-2.23l2.08-3.24h3.45ZM542.62,239.33c-1.21,1.24-2.95,1.86-5.24,1.86s-4.03-.62-5.24-1.86c-1.62-1.53-2.43-3.72-2.43-6.59s.81-5.12,2.43-6.59c1.21-1.24,2.95-1.86,5.24-1.86s4.03.62,5.24,1.86c1.61,1.47,2.42,3.66,2.42,6.59s-.81,5.07-2.42,6.59ZM540.54,236.9c.78-.98,1.17-2.36,1.17-4.16s-.39-3.18-1.17-4.16c-.78-.98-1.83-1.47-3.15-1.47s-2.38.49-3.17,1.46c-.79.98-1.18,2.36-1.18,4.16s.39,3.19,1.18,4.16,1.84,1.46,3.17,1.46,2.37-.49,3.15-1.46Z"></path><path class="cls-4" d="M547.53,224.77h3.5l6.34,11.14v-11.14h3.11v15.98h-3.34l-6.5-11.34v11.34h-3.11v-15.98Z"></path></g><rect class="cls-4" x="270.19" y="217.13" width="112.38" height="1.05"></rect><rect class="cls-4" x="270.19" y="247.66" width="112.38" height="1.05"></rect></g></g></g></svg>